# xmcd
#
# Track frame offsets:
#	150
#	19692
#	41515
#	52600
#	65142
#	81322
#	95820
#	106902
#	121805
#	138497
#	162887
#
# Disc length: 2369 seconds
#
# Revision: 1
# Processed by: cddbd v1.5.1PL2 Copyright (c) Steve Scherf et al.
# Submitted via: EasyCDDAExtractor 5.0.6
#
DISCID=8c093f0b
DTITLE=Stardust Five
DYEAR=2006
DGENRE=R&B
TTITLE0=Last Orders
TTITLE1=Nightwatchman
TTITLE2=Things We Said In The dark
TTITLE3=Pussy Got Your Tongue
TTITLE4=Mi Camion Mi Casa
TTITLE5=Everbody Loves You Baby
TTITLE6=Zoe
TTITLE7=Road To The North
TTITLE8=Lady With Dog
TTITLE9=Lover's Field
TTITLE10=Los Cucumbros
EXTD=
EXTT0=
EXTT1=
EXTT2=
EXTT3=
EXTT4=
EXTT5=
EXTT6=
EXTT7=
EXTT8=
EXTT9=
EXTT10=
PLAYORDER=
